# xmcd
#
# Track frame offsets: 
#        150
#        9740
#        18332
#        36837
#        45510
#        59312
#        68865
#        79037
#        93740
#        103257
#
# Disc length: 1632 seconds
#
# Revision: 0
# Processed by: cddbd v1.4PL0 Copyright (c) Steve Scherf et al.
# Submitted via: ExactAudioCopy v0.90b4
#
DISCID=7e065e0a
DTITLE=Charley Pride - Christmas In My Home Town
DYEAR=1900
DGENRE=Country
TTITLE0=Christmas In My Home Town
TTITLE1=Deck The Halls (With Boughs Of Holly)
TTITLE2=They Stood In Silent Prayer
TTITLE3=Santa And The Kids
TTITLE4=Silent Night
TTITLE5=Little Drummer Boy
TTITLE6=Happy Christmas Day
TTITLE7=The First Christmas Morn
TTITLE8=Christmas And Love
TTITLE9=O Holy Night
EXTD=
EXTT0=
EXTT1=
EXTT2=
EXTT3=
EXTT4=
EXTT5=
EXTT6=
EXTT7=
EXTT8=
EXTT9=
PLAYORDER=
